<svg width="78" height="98" viewBox="0 0 78 98" fill="none" xmlns="http://www.w3.org/2000/svg">
<path d="M38.9219 85.061H75.1265" stroke="#6D5C41" stroke-width="2.4" stroke-miterlimit="10" stroke-linecap="round"/>
<path d="M3.04481 94.3829C4.54293 96.1307 6.70688 97.2126 9.03729 97.2126H69.3783C71.6255 97.2126 73.8726 96.2139 75.3708 94.3829C76.8689 92.6351 77.6179 90.2214 77.3682 87.891L70.8764 27.8829C70.7932 26.8842 69.9609 26.1351 68.9621 26.1351H55.812V18.3948C55.812 8.82352 48.4046 1 39.2494 1C30.0942 1 22.6036 8.74029 22.6036 18.3116V26.0519H9.45344C8.45469 26.0519 7.6224 26.801 7.53917 27.7997L1.04732 87.8078C0.797629 90.2214 1.54669 92.6351 3.04481 94.3829ZM26.4321 18.3116C26.4321 10.9875 32.1749 4.99499 39.1662 4.99499C46.2406 4.99499 51.9002 10.9875 51.9002 18.3116V26.0519H26.4321V18.3116ZM74.1223 87.2252L74.2888 88.973C74.4552 90.2214 74.0391 91.4698 73.2068 92.4686C72.3745 93.4673 71.2925 93.9667 70.0441 93.9667H8.28823C7.0398 93.9667 5.95782 93.4673 5.12553 92.4686C4.29324 91.4698 3.96033 90.3046 4.04356 88.973L10.4522 29.3811H22.1875V43.1971C22.1875 44.3623 23.103 45.2778 24.185 45.2778C25.2669 45.2778 26.1825 44.3623 26.1825 43.1971V29.3811H52.3163V43.1971C52.3163 44.3623 53.2319 45.2778 54.3138 45.2778C55.3958 45.2778 56.3113 44.3623 56.3113 43.1971V29.3811H68.0466L73.8726 83.147L74.1223 87.2252Z" fill="#3B3B3B" stroke="#3B3B3B" stroke-width="0.5" stroke-miterlimit="10"/>
<path d="M54.5629 75.4898C53.0647 76.9879 51.0673 77.7369 48.9865 77.7369C46.9058 77.6537 44.9083 76.8214 43.4934 75.2401L40.8301 72.3271C38.8326 70.1631 38.25 67.2501 38.9991 64.5035L43.6599 69.4973L45.0748 70.9122L46.4064 72.3271C47.9046 73.9084 50.4014 73.9916 51.9828 72.4935C52.3157 72.0774 52.6486 71.7445 52.8983 71.2451C53.0647 70.7457 53.2312 70.2463 53.2312 69.747C53.2312 69.2476 53.148 68.665 52.9815 68.1656C52.8151 67.6662 52.4821 67.2501 52.1492 66.834L50.8176 65.3358L44.8251 58.844C47.4884 58.2614 50.3182 58.9272 52.3157 61.0912L55.0622 64.0042C56.4771 65.5855 57.3094 67.6662 57.2262 69.747C56.9765 71.9941 56.061 73.9916 54.5629 75.4898ZM35.5034 57.9285L44.9915 68.1656C45.7406 68.9979 46.989 68.9979 47.7381 68.2488C48.4872 67.4166 48.4872 66.1681 47.8213 65.4191L38.3332 55.1819C37.5842 54.3496 36.3357 54.3496 35.5867 55.0987C34.8376 55.8477 34.8376 57.1794 35.5034 57.9285ZM31.4252 56.4303L38.8326 64.3371C36.1693 65.0029 33.3395 64.2539 31.342 62.0899L28.5954 59.1769C27.1805 57.5955 26.3483 55.5148 26.4315 53.4341C26.5147 51.2701 27.347 49.2726 28.8451 47.7745C30.3432 46.2764 32.3407 45.5273 34.4215 45.5273C36.5022 45.6106 38.4997 46.4429 39.9146 48.0242L42.5779 50.9372C44.5754 53.1012 45.158 56.0142 44.4089 58.7607L37.0016 50.854C35.5034 49.1894 33.0066 49.1894 31.4252 50.6875C30.0103 52.2689 29.9271 54.7658 31.4252 56.4303Z" fill="#6D5C41"/>
<path d="M25.5549 87.0585H30.2989C31.3809 87.0585 32.2132 86.1429 32.2132 85.061C32.2132 83.979 31.3809 83.0635 30.2989 83.0635H25.5549C24.4729 83.0635 23.6406 83.979 23.6406 85.061C23.6406 86.2262 24.5561 87.0585 25.5549 87.0585Z" fill="#6D5C41"/>
</svg>
