  <svg width="35" height="35" viewBox="0 0 35 35" fill="none" xmlns="http://www.w3.org/2000/svg">
                        <circle cx="17.5" cy="17.5" r="17.5" fill="black" fill-opacity="0.5" />
                        <path d="M28.023 10.6159C27.5785 10.0845 26.9648 9.77053 26.2664 9.77053H22.7533V9.72222C22.7533 9.11836 22.5417 8.53865 22.1819 8.15217C21.8221 7.74155 21.3354 7.5 20.8063 7.5H14.4574C13.9071 7.5 13.4204 7.74155 13.0606 8.15217C12.7008 8.5628 12.4892 9.11836 12.4892 9.72222V9.77053H8.99726C8.29887 9.77053 7.68514 10.0845 7.24071 10.6159C6.79628 11.1232 6.5 11.8478 6.5 12.6208V24.6498C6.5 25.4469 6.77512 26.1473 7.24071 26.6546C7.68514 27.1618 8.32003 27.5 8.99726 27.5H26.2664C26.9648 27.5 27.5785 27.186 28.023 26.6546C28.4674 26.1473 28.7637 25.4227 28.7637 24.6498V12.6208C28.7637 11.8237 28.4886 11.1232 28.023 10.6159ZM27.6632 24.6498H27.642C27.642 25.0845 27.4939 25.471 27.2399 25.7609C26.986 26.0507 26.6474 26.2198 26.2664 26.2198H8.99726C8.61632 26.2198 8.27771 26.0507 8.02375 25.7609C7.76979 25.471 7.62165 25.0845 7.62165 24.6498V12.6208C7.62165 12.186 7.76979 11.7995 8.02375 11.5097C8.27771 11.2198 8.61632 11.0507 8.99726 11.0507H13.0818C13.3992 11.0507 13.6532 10.7609 13.6532 10.3986V9.69807C13.6532 9.43237 13.7378 9.19082 13.886 9.02174C14.0341 8.85266 14.2457 8.75604 14.4785 8.75604H20.8063C21.0391 8.75604 21.2507 8.85266 21.3989 9.02174C21.547 9.19082 21.6317 9.43237 21.6317 9.69807V10.3986C21.6317 10.7609 21.8856 11.0507 22.2031 11.0507H26.2876C26.6685 11.0507 27.0071 11.2198 27.2611 11.5097C27.515 11.7995 27.6632 12.186 27.6632 12.6208V24.6498Z" fill="white" />
                        <path d="M17.6319 12.6934C16.1928 12.6934 14.8807 13.3697 13.9495 14.4325C12.9972 15.5194 12.4258 16.9929 12.4258 18.6354C12.4258 20.2779 13.0184 21.7755 13.9495 22.8383C14.9019 23.9252 16.1928 24.5774 17.6319 24.5774C19.071 24.5774 20.3831 23.9011 21.3143 22.8383C22.2667 21.7513 22.8381 20.2779 22.8381 18.6354C22.8381 16.9929 22.2455 15.4953 21.3143 14.4325C20.3831 13.3697 19.071 12.6934 17.6319 12.6934ZM20.5101 21.9446C19.7694 22.7658 18.7536 23.2972 17.6319 23.2972C16.5103 23.2972 15.4944 22.7658 14.7537 21.9446C14.013 21.0992 13.5686 19.9397 13.5686 18.6595C13.5686 17.3793 14.0342 16.2199 14.7537 15.3745C15.4944 14.5291 16.5103 14.0219 17.6319 14.0219C18.7536 14.0219 19.7694 14.5533 20.5101 15.3745C21.2508 16.2199 21.6953 17.3793 21.6953 18.6595C21.7164 19.9397 21.2508 21.0992 20.5101 21.9446Z" fill="white" />
                        <path d="M25.1659 15.0361C25.7386 15.0361 26.2029 14.5062 26.2029 13.8525C26.2029 13.1988 25.7386 12.6689 25.1659 12.6689C24.5932 12.6689 24.1289 13.1988 24.1289 13.8525C24.1289 14.5062 24.5932 15.0361 25.1659 15.0361Z" fill="white" />
</svg>