<svg width="49" height="49" viewBox="0 0 49 49" fill="none" xmlns="http://www.w3.org/2000/svg">
<path d="M13.7687 25.6189V21.7437H21.998V14.0369H26.0038V21.7437H34.2332V25.6189H26.0038V33.3693H21.998V25.6189H13.7687Z" fill="white"/>
<path d="M33.8197 40.23H14.5407C13.5817 40.23 12.6622 39.8491 11.9844 39.1709C11.3066 38.4931 10.9258 37.5736 10.9258 36.615V20.9499C10.9258 19.9913 11.3066 19.0718 11.9844 18.3936C12.6622 17.7158 13.5817 17.335 14.5407 17.335H33.8197C34.7788 17.335 35.6983 17.7158 36.376 18.3936C37.0538 19.0718 37.4347 19.9913 37.4347 20.9499V36.615C37.4347 37.5736 37.0538 38.4931 36.376 39.1709C35.6982 39.8491 34.7787 40.23 33.8197 40.23ZM14.5407 19.7446C13.875 19.7446 13.3356 20.2844 13.3356 20.9497V36.6148C13.3356 36.9343 13.4627 37.2406 13.6886 37.4669C13.9146 37.6928 14.2212 37.8195 14.5407 37.8195H33.8197C34.1393 37.8195 34.4459 37.6928 34.6718 37.4669C34.8978 37.2406 35.0249 36.9343 35.0249 36.6148V20.9497C35.0249 20.6302 34.8978 20.3235 34.6718 20.0976C34.4459 19.8717 34.1393 19.7446 33.8197 19.7446H14.5407Z" fill="#857250"/>
<path d="M31.4149 14.9246C30.7496 14.9246 30.2098 14.3848 30.2098 13.7195V12.5144C30.2098 12.1948 30.0831 11.8886 29.8572 11.6623C29.6308 11.4363 29.3246 11.3097 29.0051 11.3097H19.3649C18.6997 11.3097 18.1602 11.8491 18.1602 12.5144V13.7195C18.1602 14.3848 17.6204 14.9246 16.9551 14.9246C16.2898 14.9246 15.75 14.3848 15.75 13.7195V12.5144C15.75 11.5558 16.1309 10.6362 16.8091 9.95849C17.4869 9.28029 18.4064 8.89941 19.3649 8.89941H29.0051C29.9637 8.89941 30.8832 9.28028 31.5609 9.95849C32.2392 10.6363 32.62 11.5558 32.62 12.5144V13.7195C32.62 14.039 32.4929 14.3456 32.267 14.5716C32.0411 14.7975 31.7345 14.9246 31.4149 14.9246Z" fill="#857250"/>
<path d="M33.8205 19.7455C33.1552 19.7455 32.6158 19.2061 32.6158 18.5408V16.1306C32.6158 15.811 32.4887 15.5048 32.2628 15.2785C32.0368 15.0526 31.7302 14.9259 31.4107 14.9259H16.9509C16.2856 14.9259 15.7458 15.4653 15.7458 16.1306V18.5408C15.7458 19.2061 15.2063 19.7455 14.5411 19.7455C13.8754 19.7455 13.3359 19.2061 13.3359 18.5408V16.1306C13.3359 15.172 13.7168 14.2525 14.3946 13.5747C15.0728 12.8965 15.9923 12.5156 16.9509 12.5156H31.4107C32.3693 12.5156 33.2888 12.8965 33.9669 13.5747C34.6448 14.2525 35.0256 15.172 35.0256 16.1306V18.5408C35.0256 18.8604 34.8985 19.1666 34.6726 19.3929C34.4467 19.6188 34.14 19.7455 33.8205 19.7455Z" fill="#857250"/>
<path d="M24.1813 48.6644C17.7898 48.6644 11.6602 46.1255 7.14047 41.606C2.62096 37.0865 0.0820312 30.9563 0.0820312 24.5651C0.0820312 18.1739 2.62096 12.044 7.14047 7.52426C11.66 3.00475 17.7901 0.46582 24.1813 0.46582C30.5725 0.46582 36.7025 3.00475 41.2222 7.52426C45.7417 12.0438 48.2806 18.1739 48.2806 24.5651C48.2734 30.9546 45.732 37.0801 41.2141 41.5977C36.6963 46.1156 30.5707 48.657 24.1815 48.6642L24.1813 48.6644ZM24.1813 2.87544C18.4289 2.87544 12.912 5.1606 8.84466 9.22824C4.77702 13.2959 2.49186 18.8127 2.49186 24.5649C2.49186 30.3171 4.77702 35.8342 8.84466 39.9016C12.9123 43.9692 18.4291 46.2544 24.1813 46.2544C29.9335 46.2544 35.4507 43.9692 39.518 39.9016C43.5856 35.8339 45.8708 30.3171 45.8708 24.5649C45.8639 18.8145 43.5767 13.3018 39.5108 9.23547C35.4444 5.16948 29.9316 2.88226 24.1813 2.87544Z" fill="#857250"/>
</svg>
