
<svg width="42" height="41" viewBox="0 0 42 41" fill="none" xmlns="http://www.w3.org/2000/svg">
<path fill-rule="evenodd" clip-rule="evenodd" d="M36.5325 12.5448V12.5448L24.5308 2.02321C22.2528 -0.0142457 18.8075 -0.0142457 16.5296 2.02321L4.52783 12.5448C3.24253 13.6943 2.51383 15.3411 2.52753 17.0654V34.548C2.52753 37.8622 5.21422 40.5489 8.52841 40.5489H32.5319C35.8461 40.5489 38.5328 37.8622 38.5328 34.548V17.0454C38.5408 15.3281 37.8126 13.6896 36.5325 12.5448ZM24.5328 36.5472H16.5317V26.5457C16.5317 25.441 17.4272 24.5454 18.532 24.5454H22.5325C23.6373 24.5454 24.5328 25.441 24.5328 26.5457V36.5472ZM34.5366 34.546C34.5366 35.6507 33.641 36.5463 32.5363 36.5463H28.5357V26.5448C28.5357 23.2306 25.849 20.5439 22.5348 20.5439H18.5342C15.22 20.5439 12.5334 23.2306 12.5334 26.5448V36.5463H8.53277C7.42804 36.5463 6.53248 35.6507 6.53248 34.546V17.0434C6.53321 16.4689 6.78095 15.9224 7.21258 15.5432L19.2143 5.04167C19.9695 4.37828 21.0996 4.37828 21.8547 5.04167L33.8565 15.5432C34.2881 15.9224 34.5359 16.4689 34.5366 17.0434V34.546Z" fill="#857250"/>
</svg>




