<svg width="1440" height="95" viewBox="0 0 1440 95" fill="none" xmlns="http://www.w3.org/2000/svg">
<path d="M159.137 21.2945C159.137 20.9658 159.137 20.7467 159.246 20.6371C159.356 20.418 159.465 20.3084 159.685 20.1988C159.904 20.0893 160.232 20.0893 160.561 19.9797C160.999 19.9797 161.438 19.8701 162.095 19.8701C162.753 19.8701 163.3 19.8701 163.629 19.9797C164.067 19.9797 164.287 20.0893 164.506 20.1988C164.725 20.3084 164.834 20.418 164.944 20.6371C165.054 20.8563 165.054 21.0754 165.054 21.2945L164.396 44.5235H168.669C168.998 44.5235 169.217 44.5235 169.327 44.633C169.436 44.633 169.655 44.7426 169.655 44.8522C169.765 44.9617 169.765 45.0713 169.765 45.2905C169.765 45.5096 169.765 45.7287 169.765 46.0575C169.765 46.3862 169.765 46.6053 169.765 46.8244C169.765 47.0436 169.765 47.1532 169.655 47.2627C169.546 47.3723 169.436 47.4819 169.327 47.4819C169.217 47.4819 168.998 47.5914 168.669 47.5914H162.095C161.547 47.5914 161.219 47.5914 160.89 47.5914C160.561 47.5914 160.342 47.4819 160.232 47.4819C160.123 47.3723 160.013 47.2627 159.904 47.1532C159.904 47.0436 159.794 46.8244 159.794 46.4957L159.137 21.2945ZM176.887 38.9354L170.97 22.2807C170.861 21.952 170.751 21.7328 170.751 21.5137C170.642 21.2945 170.642 21.0754 170.642 20.8563C170.642 20.6371 170.642 20.5275 170.751 20.418C170.861 20.3084 170.97 20.1988 171.189 20.0893C171.409 19.9797 171.737 19.9797 172.176 19.9797C172.614 19.9797 173.052 19.9797 173.71 19.9797C174.257 19.9797 174.805 19.9797 175.134 19.9797C175.463 19.9797 175.791 20.0893 176.011 20.1988C176.23 20.3084 176.339 20.418 176.449 20.6371C176.558 20.8563 176.668 21.0754 176.668 21.4041L179.188 34.2238H179.517L181.927 21.4041C182.037 21.0754 182.037 20.7467 182.147 20.6371C182.256 20.418 182.366 20.3084 182.585 20.1988C182.804 20.0893 183.023 20.0893 183.461 20.0893C183.79 20.0893 184.338 20.0893 184.886 20.0893C185.434 20.0893 185.981 20.0893 186.42 20.0893C186.858 20.0893 187.077 20.1988 187.406 20.1988C187.625 20.3084 187.844 20.3084 187.844 20.5275C187.954 20.6371 187.954 20.8563 187.954 20.9658C187.954 21.185 187.954 21.4041 187.844 21.6232C187.735 21.8424 187.735 22.1711 187.625 22.3902L181.818 39.1545L181.599 46.6053C181.599 46.8244 181.599 47.0436 181.489 47.2627C181.489 47.3723 181.38 47.4819 181.16 47.5914C181.051 47.701 180.832 47.701 180.503 47.701C180.174 47.701 179.846 47.701 179.298 47.701C178.75 47.701 178.421 47.701 178.092 47.701C177.764 47.701 177.545 47.5914 177.435 47.5914C177.325 47.4819 177.216 47.3723 177.106 47.2627C177.106 47.1532 176.997 46.934 176.997 46.6053L176.887 38.9354ZM190.255 21.2945C190.255 20.9658 190.255 20.7467 190.364 20.6371C190.364 20.418 190.583 20.3084 190.693 20.1988C190.912 20.0893 191.131 20.0893 191.46 19.9797C191.789 19.9797 192.227 19.8701 192.884 19.8701C193.323 19.8701 193.651 19.8701 193.98 19.8701C194.309 19.8701 194.528 19.9797 194.747 19.9797C194.966 19.9797 195.076 20.0893 195.185 20.1988C195.295 20.3084 195.405 20.418 195.405 20.6371L201.54 37.2918H201.65L200.773 21.2945C200.773 20.9658 200.773 20.7467 200.883 20.6371C200.993 20.418 201.102 20.3084 201.212 20.1988C201.431 20.0893 201.65 20.0893 201.979 19.9797C202.307 19.9797 202.855 19.8701 203.403 19.8701C204.061 19.8701 204.608 19.8701 204.937 19.9797C205.375 19.9797 205.595 20.0893 205.814 20.1988C206.033 20.3084 206.142 20.418 206.252 20.6371C206.362 20.8563 206.362 21.0754 206.362 21.2945L205.595 45.9479C205.595 46.167 205.595 46.3862 205.485 46.6053C205.485 46.8244 205.375 46.934 205.266 47.1532C205.156 47.2627 204.937 47.3723 204.718 47.4819C204.499 47.5914 204.17 47.5914 203.732 47.5914C203.294 47.5914 202.965 47.5914 202.746 47.4819C202.527 47.4819 202.307 47.2627 202.198 47.0436L195.514 30.0602H195.295L195.185 46.3862C195.185 46.6053 195.185 46.8244 195.076 47.0436C195.076 47.1532 194.966 47.2627 194.857 47.3723C194.747 47.4819 194.528 47.4819 194.309 47.4819C194.09 47.4819 193.761 47.4819 193.323 47.4819C192.884 47.4819 192.446 47.4819 192.117 47.4819C191.789 47.4819 191.57 47.3723 191.46 47.3723C191.35 47.2627 191.241 47.1532 191.131 47.0436C191.131 46.934 191.022 46.7149 191.022 46.3862L190.255 21.2945ZM216.771 35.8674L219.729 21.4041C219.839 21.0754 219.839 20.8563 219.948 20.6371C220.058 20.418 220.167 20.3084 220.387 20.1988C220.606 20.0893 220.934 19.9797 221.263 19.9797C221.592 19.9797 222.14 19.9797 222.688 19.9797C223.674 19.9797 224.331 20.0893 224.769 20.1988C225.208 20.3084 225.427 20.5275 225.427 20.9658C225.427 21.0754 225.427 21.185 225.427 21.2945C225.427 21.4041 225.427 21.5137 225.317 21.6232C225.317 21.7328 225.317 21.8424 225.208 21.952C225.208 22.0615 225.098 22.1711 225.098 22.2807L221.044 35.7578L224.769 45.1809C224.879 45.6192 224.989 45.9479 225.098 46.167C225.208 46.3862 225.208 46.6053 225.208 46.8244C225.208 46.934 225.208 47.0436 225.098 47.1532C225.098 47.2627 224.989 47.2627 224.769 47.3723C224.66 47.3723 224.441 47.4819 224.112 47.4819C223.893 47.4819 223.455 47.4819 223.016 47.4819C222.688 47.4819 222.359 47.4819 222.03 47.4819C221.811 47.4819 221.592 47.3723 221.482 47.2627C221.373 47.1532 221.263 47.0436 221.154 46.8244C221.044 46.6053 220.934 46.3862 220.825 46.167L216.771 35.8674ZM210.197 21.2945C210.197 20.9658 210.197 20.7467 210.306 20.6371C210.416 20.418 210.525 20.3084 210.744 20.1988C210.964 20.0893 211.292 20.0893 211.621 19.9797C212.059 19.9797 212.498 19.8701 213.155 19.8701C213.812 19.8701 214.36 19.8701 214.689 19.9797C215.127 19.9797 215.346 20.0893 215.565 20.1988C215.785 20.3084 215.894 20.418 216.004 20.6371C216.113 20.8563 216.113 21.0754 216.113 21.2945L215.346 46.4957C215.346 46.7149 215.346 46.934 215.237 47.1532C215.237 47.2627 215.127 47.3723 214.908 47.4819C214.798 47.5914 214.579 47.5914 214.251 47.5914C213.922 47.5914 213.593 47.5914 213.045 47.5914C212.498 47.5914 212.169 47.5914 211.84 47.5914C211.511 47.5914 211.292 47.4819 211.183 47.4819C211.073 47.4819 210.964 47.2627 210.854 47.1532C210.854 47.0436 210.744 46.8244 210.744 46.4957L210.197 21.2945Z" fill="#6A5B40"/>
<path d="M232.371 23.3752H229.412C229.083 23.3752 228.864 23.3752 228.755 23.2656C228.645 23.2656 228.536 23.1561 228.426 23.0465C228.316 22.9369 228.316 22.7178 228.316 22.6082C228.316 22.3891 228.316 22.1699 228.316 21.8412C228.316 21.5125 228.316 21.2934 228.316 21.0742C228.316 20.8551 228.426 20.7455 228.426 20.6359C228.536 20.5264 228.645 20.4168 228.755 20.4168C228.864 20.4168 229.083 20.3072 229.412 20.3072H234.891H235.219H241.136C241.465 20.3072 241.684 20.3072 241.794 20.4168C241.903 20.4168 242.122 20.5264 242.122 20.6359C242.232 20.7455 242.232 20.9646 242.232 21.0742C242.232 21.2934 242.232 21.5125 242.232 21.8412C242.232 22.1699 242.232 22.3891 242.232 22.6082C242.232 22.8273 242.232 22.9369 242.122 23.0465C242.013 23.1561 241.903 23.2656 241.794 23.2656C241.684 23.2656 241.465 23.3752 241.136 23.3752H238.178L237.52 46.385C237.52 46.6041 237.52 46.8233 237.411 46.9328C237.411 47.0424 237.301 47.152 237.082 47.2615C236.972 47.3711 236.753 47.3711 236.425 47.3711C236.096 47.3711 235.767 47.3711 235.219 47.3711C234.671 47.3711 234.343 47.3711 234.014 47.3711C233.685 47.3711 233.466 47.2615 233.357 47.2615C233.247 47.152 233.138 47.0424 233.028 46.9328C233.028 46.8233 232.918 46.6041 232.918 46.385L232.371 23.3752ZM245.848 25.457C245.848 24.69 245.957 23.9231 246.286 23.2656C246.615 22.6082 247.053 22.0604 247.601 21.5125C248.258 21.0742 249.025 20.6359 250.011 20.4168C250.997 20.1977 252.203 19.9785 253.627 19.9785C255.052 19.9785 256.147 20.0881 257.133 20.4168C258.12 20.6359 258.996 21.0742 259.544 21.5125C260.201 21.9508 260.64 22.4986 260.968 23.2656C261.297 23.9231 261.407 24.69 261.407 25.457L260.968 42.55C260.968 43.2074 260.749 43.8649 260.53 44.5223C260.201 45.1797 259.763 45.7276 259.215 46.1658C258.667 46.6041 257.9 47.0424 256.914 47.2615C256.038 47.4807 254.942 47.6998 253.627 47.6998C252.312 47.6998 251.217 47.5903 250.34 47.2615C249.463 47.0424 248.696 46.6041 248.039 46.1658C247.491 45.7276 247.053 45.1797 246.724 44.5223C246.396 43.8649 246.286 43.2074 246.286 42.55L245.848 25.457ZM250.997 42.6596C250.997 43.0979 250.997 43.5362 251.107 43.7553C251.217 44.084 251.326 44.3031 251.545 44.5223C251.764 44.7414 251.984 44.851 252.312 44.851C252.641 44.9606 253.079 44.9606 253.518 44.9606C253.956 44.9606 254.394 44.9606 254.723 44.851C255.052 44.7414 255.271 44.6319 255.49 44.5223C255.709 44.3031 255.819 44.084 255.928 43.7553C256.038 43.4266 256.038 43.0979 256.038 42.6596L255.599 24.9092C255.599 24.4709 255.49 24.0326 255.49 23.8135C255.38 23.4848 255.271 23.2656 255.052 23.1561C254.832 23.0465 254.613 22.9369 254.394 22.8273C254.175 22.8273 253.846 22.7178 253.518 22.7178C253.189 22.7178 252.86 22.7178 252.641 22.8273C252.422 22.8273 252.203 22.9369 251.984 23.1561C251.764 23.2656 251.655 23.4848 251.545 23.8135C251.436 24.1422 251.436 24.4709 251.436 24.9092L250.997 42.6596ZM265.242 21.5125C265.132 21.2934 265.132 21.0742 265.242 20.8551C265.351 20.6359 265.461 20.5264 265.68 20.4168C265.899 20.3072 266.228 20.1977 266.666 20.1977C267.104 20.1977 267.652 20.0881 268.31 20.0881C268.967 20.0881 269.515 20.0881 269.953 20.1977C270.391 20.1977 270.611 20.3072 270.83 20.4168C271.049 20.5264 271.158 20.6359 271.268 20.8551C271.378 21.0742 271.378 21.2934 271.378 21.5125L272.364 42.7692H272.802L275.98 21.5125C275.98 21.2934 276.089 21.0742 276.089 20.8551C276.199 20.6359 276.308 20.5264 276.418 20.4168C276.637 20.3072 276.856 20.3072 277.185 20.1977C277.514 20.1977 277.952 20.0881 278.5 20.0881C279.048 20.0881 279.595 20.0881 279.924 20.1977C280.253 20.1977 280.581 20.3072 280.691 20.4168C280.91 20.5264 281.02 20.6359 281.02 20.8551C281.129 21.0742 281.129 21.2934 281.239 21.5125L284.416 42.7692H284.855L285.841 21.5125C285.841 21.2934 285.841 21.0742 285.95 20.8551C286.06 20.6359 286.17 20.5264 286.389 20.4168C286.608 20.3072 286.937 20.3072 287.265 20.1977C287.704 20.1977 288.142 20.0881 288.799 20.0881C289.457 20.0881 289.895 20.0881 290.333 20.1977C290.772 20.1977 291.1 20.3072 291.319 20.4168C291.539 20.5264 291.648 20.6359 291.758 20.8551C291.867 21.0742 291.867 21.2934 291.758 21.5125L287.484 46.2754C287.484 46.4946 287.375 46.7137 287.265 46.8233C287.156 46.9328 287.046 47.0424 286.827 47.152C286.608 47.2616 286.389 47.2615 286.06 47.2615C285.731 47.2615 285.403 47.2615 284.855 47.2615C284.197 47.2615 283.759 47.2615 283.321 47.2615C282.882 47.2615 282.554 47.152 282.335 47.152C282.115 47.0424 281.896 46.9328 281.787 46.8233C281.677 46.7137 281.568 46.4946 281.568 46.2754L278.5 28.1963H278.171L275.103 46.2754C275.103 46.4946 274.993 46.7137 274.884 46.8233C274.774 46.9328 274.555 47.0424 274.336 47.152C274.117 47.2616 273.788 47.2615 273.459 47.2615C273.131 47.2615 272.583 47.2615 272.035 47.2615C271.487 47.2615 271.049 47.2615 270.72 47.2615C270.391 47.2615 270.172 47.152 269.953 47.152C269.734 47.0424 269.624 46.9328 269.515 46.8233C269.405 46.7137 269.296 46.4946 269.296 46.2754L265.242 21.5125ZM295.702 21.5125C295.702 21.1838 295.702 20.9646 295.812 20.8551C295.812 20.6359 296.031 20.5264 296.141 20.4168C296.36 20.3072 296.579 20.3072 296.907 20.1977C297.236 20.1977 297.674 20.0881 298.222 20.0881C298.661 20.0881 298.989 20.0881 299.318 20.0881C299.647 20.0881 299.866 20.1977 300.085 20.1977C300.304 20.1977 300.414 20.3072 300.523 20.4168C300.633 20.5264 300.742 20.6359 300.742 20.8551L306.769 37.1811H306.878L306.111 21.4029C306.111 21.0742 306.111 20.8551 306.221 20.7455C306.331 20.5264 306.44 20.4168 306.55 20.3072C306.769 20.1977 306.988 20.1977 307.317 20.0881C307.645 20.0881 308.084 19.9785 308.741 19.9785C309.399 19.9785 309.837 19.9785 310.275 20.0881C310.713 20.0881 310.933 20.1977 311.152 20.3072C311.371 20.4168 311.48 20.5264 311.59 20.7455C311.699 20.9647 311.7 21.1838 311.7 21.4029L310.823 45.8371C310.823 46.0563 310.823 46.2754 310.713 46.4946C310.713 46.7137 310.604 46.8233 310.494 47.0424C310.385 47.152 310.166 47.2616 309.946 47.3711C309.727 47.4807 309.399 47.4807 308.96 47.4807C308.522 47.4807 308.193 47.4807 307.974 47.3711C307.755 47.3711 307.536 47.152 307.426 46.9328L300.962 30.2781H300.742L300.633 46.2754C300.633 46.4946 300.633 46.7137 300.523 46.8233C300.523 46.9328 300.414 47.0424 300.304 47.152C300.195 47.2616 299.975 47.2615 299.756 47.2615C299.537 47.2615 299.208 47.2615 298.77 47.2615C298.332 47.2615 297.894 47.2615 297.565 47.2615C297.236 47.2615 297.017 47.152 296.907 47.152C296.798 47.0424 296.688 46.9328 296.579 46.8233C296.579 46.7137 296.469 46.4946 296.469 46.2754L295.702 21.5125Z" fill="#2A2A2A"/>
<path d="M161.07 60.2707C160.643 60.2707 160.322 60.1638 160.109 60.057C159.788 59.9502 159.574 59.7365 159.468 59.5228C159.254 59.3092 159.254 58.9887 159.254 58.6682H160.215C160.215 58.8818 160.322 59.0955 160.429 59.3092C160.643 59.5228 160.856 59.5228 161.07 59.5228C161.284 59.5228 161.497 59.416 161.711 59.3092C161.818 59.2023 161.925 58.9887 161.925 58.775C161.925 58.5614 161.818 58.3477 161.711 58.2409C161.604 58.134 161.391 58.0272 161.177 57.9204C160.963 57.8135 160.75 57.8135 160.536 57.7067C160.109 57.5999 159.788 57.3862 159.574 57.1726C159.361 56.9589 159.254 56.6384 159.254 56.3179C159.254 55.9974 159.361 55.7837 159.468 55.5701C159.574 55.3564 159.788 55.1428 160.109 55.0359C160.322 54.9291 160.643 54.8223 160.963 54.8223C161.284 54.8223 161.604 54.9291 161.818 55.0359C162.032 55.1428 162.245 55.3564 162.459 55.5701C162.566 55.7837 162.673 56.1042 162.673 56.3179H161.711C161.711 56.1042 161.604 55.9974 161.497 55.8906C161.391 55.7837 161.177 55.6769 160.963 55.6769C160.75 55.6769 160.536 55.6769 160.429 55.7837C160.322 55.8906 160.215 55.9974 160.215 56.2111C160.215 56.4247 160.322 56.5316 160.429 56.6384C160.536 56.7452 160.643 56.8521 160.856 56.8521C161.07 56.9589 161.284 56.9589 161.497 57.0657C161.711 57.1725 162.032 57.2794 162.245 57.3862C162.459 57.493 162.673 57.7067 162.779 57.8135C162.886 58.0272 162.993 58.2409 162.993 58.5614C162.993 58.8818 162.886 59.0955 162.779 59.3092C162.673 59.5228 162.459 59.7365 162.138 59.8433C161.818 60.2707 161.497 60.2707 161.07 60.2707ZM168.762 60.2707C168.228 60.2707 167.8 60.1638 167.373 59.9502C166.946 59.7365 166.732 59.416 166.518 58.9887C166.305 58.5614 166.198 58.134 166.198 57.5999C166.198 57.0657 166.305 56.6384 166.518 56.2111C166.732 55.7837 167.053 55.4632 167.373 55.2496C167.8 55.0359 168.228 54.9291 168.762 54.9291C169.296 54.9291 169.723 55.0359 170.151 55.2496C170.578 55.4632 170.792 55.7837 171.005 56.2111C171.219 56.6384 171.326 57.0657 171.326 57.5999C171.326 58.134 171.219 58.5614 171.005 58.9887C170.792 59.416 170.471 59.7365 170.151 59.9502C169.83 60.1638 169.296 60.2707 168.762 60.2707ZM168.762 59.416C169.296 59.416 169.617 59.2023 169.937 58.8818C170.258 58.5614 170.364 58.134 170.364 57.5999C170.364 57.0657 170.258 56.6384 169.937 56.3179C169.617 55.9974 169.296 55.7837 168.762 55.7837C168.228 55.7837 167.907 55.9974 167.587 56.3179C167.266 56.6384 167.159 57.0657 167.159 57.5999C167.159 58.134 167.266 58.5614 167.587 58.8818C167.907 59.3092 168.335 59.416 168.762 59.416ZM177.202 60.2707C176.667 60.2707 176.24 60.1638 175.813 59.9502C175.492 59.7365 175.172 59.416 174.958 58.9887C174.744 58.5614 174.638 58.134 174.638 57.5999C174.638 57.0657 174.744 56.6384 174.958 56.2111C175.172 55.7837 175.492 55.4632 175.813 55.2496C176.133 55.0359 176.667 54.9291 177.202 54.9291C177.843 54.9291 178.377 55.0359 178.697 55.3564C179.124 55.6769 179.338 56.1042 179.445 56.6384H178.377C178.27 56.3179 178.163 56.1042 177.949 55.9974C177.736 55.7837 177.415 55.7837 177.095 55.7837C176.667 55.7837 176.24 55.9974 176.026 56.3179C175.706 56.6384 175.599 57.0657 175.599 57.5999C175.599 58.134 175.706 58.5614 176.026 58.8818C176.347 59.2023 176.667 59.3092 177.095 59.3092C177.415 59.3092 177.736 59.2023 177.949 59.0955C178.163 58.9887 178.27 58.775 178.377 58.4545H179.445C179.338 58.9887 179.124 59.416 178.697 59.7365C178.377 60.1638 177.843 60.2707 177.202 60.2707ZM182.97 60.2707V55.1428H183.932V60.2707H182.97ZM187.244 60.2707L189.167 55.1428H190.235L192.158 60.2707H191.196L190.769 59.0955H188.739L188.312 60.2707H187.244ZM188.846 58.2409H190.342L189.594 56.1042L188.846 58.2409ZM195.363 60.2707V55.1428H196.324V59.5228H198.675V60.2707H195.363ZM206.473 60.2707V55.1428H208.503C209.037 55.1428 209.465 55.2496 209.678 55.5701C209.999 55.7837 210.106 56.1042 210.106 56.5316C210.106 56.8521 209.999 57.0657 209.892 57.2794C209.678 57.493 209.465 57.5999 209.251 57.7067C209.571 57.8135 209.785 57.9204 209.999 58.134C210.212 58.3477 210.319 58.6682 210.319 58.9887C210.319 59.416 210.212 59.7365 209.892 59.9502C209.571 60.1638 209.144 60.3775 208.61 60.3775H206.473V60.2707ZM207.435 57.2794H208.396C208.61 57.2794 208.824 57.1725 209.037 57.0657C209.251 56.9589 209.251 56.7452 209.251 56.5316C209.251 56.3179 209.144 56.1042 209.037 55.9974C208.93 55.8906 208.717 55.7837 208.396 55.7837H207.435V57.2794ZM207.435 59.416H208.503C208.824 59.416 209.037 59.3092 209.144 59.2023C209.251 59.0955 209.358 58.8818 209.358 58.6682C209.358 58.4545 209.251 58.2409 209.144 58.134C209.037 58.0272 208.717 57.9204 208.503 57.9204H207.435V59.416ZM215.874 60.2707C215.447 60.2707 215.127 60.1638 214.806 60.057C214.486 59.9502 214.272 59.6297 214.058 59.416C213.845 59.0955 213.845 58.775 213.845 58.2409V55.0359H214.806V58.2409C214.806 58.6682 214.913 58.9887 215.127 59.0955C215.34 59.3092 215.554 59.416 215.981 59.416C216.302 59.416 216.622 59.3092 216.836 59.0955C217.05 58.8818 217.156 58.5614 217.156 58.2409V55.0359H218.118V58.2409C218.118 58.6682 218.011 59.0955 217.797 59.416C217.584 59.7365 217.37 59.9502 217.05 60.057C216.515 60.2706 216.195 60.2707 215.874 60.2707ZM222.818 60.2707V58.4545L221.109 55.1428H222.177L223.353 57.493L224.528 55.1428H225.596L223.887 58.4545V60.2707H222.818ZM228.801 60.2707V55.1428H229.762V60.2707H228.801ZM233.395 60.2707V55.1428H234.356L236.813 58.775V55.1428H237.775V60.2707H236.813L234.356 56.6384V60.2707H233.395ZM243.65 60.2707C243.116 60.2707 242.689 60.1638 242.368 59.9502C242.048 59.7365 241.728 59.416 241.514 58.9887C241.3 58.5614 241.193 58.134 241.193 57.5999C241.193 57.0657 241.3 56.6384 241.514 56.2111C241.728 55.7837 242.048 55.4632 242.368 55.2496C242.796 55.0359 243.223 54.9291 243.757 54.9291C244.398 54.9291 244.826 55.0359 245.253 55.3564C245.68 55.6769 245.894 55.9974 246.001 56.5316H244.932C244.826 56.3179 244.719 56.1042 244.505 55.9974C244.291 55.8906 244.078 55.7837 243.757 55.7837C243.223 55.7837 242.796 55.9974 242.582 56.3179C242.262 56.6384 242.155 57.0657 242.155 57.7067C242.155 58.2409 242.262 58.6682 242.582 58.9887C242.903 59.3092 243.223 59.416 243.757 59.416C244.185 59.416 244.612 59.3092 244.826 58.9887C245.039 58.775 245.253 58.3477 245.253 58.0272H243.971V57.2794H246.214V60.1638H245.36L245.253 59.5228C245.039 59.7365 244.826 59.9502 244.612 60.057C244.291 60.2706 243.971 60.2707 243.65 60.2707ZM255.722 60.2707C255.295 60.2707 254.975 60.1638 254.761 60.057C254.44 59.9502 254.227 59.7365 254.12 59.5228C254.013 59.3092 253.906 58.9887 253.906 58.6682C253.906 58.3477 254.013 58.0272 254.227 57.8135C254.44 57.493 254.654 57.2794 255.081 57.1726C254.975 56.9589 254.868 56.8521 254.761 56.6384C254.654 56.5316 254.654 56.3179 254.654 56.1042C254.654 55.8906 254.761 55.6769 254.868 55.4633C254.975 55.2496 255.188 55.1428 255.402 55.0359C255.616 54.9291 255.936 54.8223 256.15 54.8223C256.47 54.8223 256.684 54.9291 256.898 55.0359C257.111 55.1428 257.325 55.2496 257.432 55.4633C257.539 55.6769 257.645 55.8906 257.539 56.1042H256.684C256.684 55.8906 256.577 55.7837 256.47 55.6769C256.363 55.5701 256.257 55.5701 256.043 55.5701C255.829 55.5701 255.722 55.5701 255.616 55.6769C255.509 55.7837 255.509 55.8906 255.509 55.9974C255.509 56.1042 255.509 56.2111 255.616 56.4247C255.722 56.5316 255.829 56.7452 255.936 56.8521L257.432 58.2409C257.539 58.0272 257.645 57.9204 257.752 57.7067L257.966 57.3862H258.927L258.714 57.9204C258.5 58.3477 258.286 58.6682 258.073 58.8818L259.248 60.057H258.073L257.539 59.5228C257.325 59.7365 257.004 59.9502 256.684 60.057C256.47 60.2706 256.15 60.2707 255.722 60.2707ZM254.868 58.6682C254.868 58.8818 254.975 59.0955 255.081 59.3092C255.295 59.5228 255.509 59.5228 255.829 59.5228C256.257 59.5228 256.577 59.416 256.898 59.0955L255.509 57.7067C255.295 57.8135 255.081 57.9204 254.975 58.134C254.868 58.2409 254.868 58.4545 254.868 58.6682ZM268.649 60.2707C268.222 60.2707 267.901 60.1638 267.687 60.057C267.367 59.9502 267.153 59.7365 267.046 59.5228C266.833 59.3092 266.833 58.9887 266.833 58.6682H267.794C267.794 58.8818 267.901 59.0955 268.008 59.3092C268.222 59.5228 268.435 59.5228 268.649 59.5228C268.863 59.5228 269.076 59.416 269.29 59.3092C269.397 59.2023 269.504 58.9887 269.504 58.775C269.504 58.5614 269.397 58.3477 269.29 58.2409C269.183 58.134 268.969 58.0272 268.756 57.9204C268.542 57.8135 268.328 57.8135 268.115 57.7067C267.687 57.5999 267.367 57.3862 267.153 57.1726C266.94 56.9589 266.833 56.6384 266.833 56.3179C266.833 55.9974 266.94 55.7837 267.046 55.5701C267.153 55.3564 267.367 55.1428 267.687 55.0359C267.901 54.9291 268.222 54.8223 268.542 54.8223C268.863 54.8223 269.183 54.9291 269.397 55.0359C269.61 55.1428 269.824 55.3564 270.038 55.5701C270.145 55.7837 270.251 56.1042 270.251 56.3179H269.29C269.29 56.1042 269.183 55.9974 269.076 55.8906C268.969 55.7837 268.756 55.6769 268.542 55.6769C268.328 55.6769 268.115 55.6769 268.008 55.7837C267.901 55.8906 267.794 55.9974 267.794 56.2111C267.794 56.4247 267.901 56.5316 268.008 56.6384C268.115 56.7452 268.222 56.8521 268.435 56.8521C268.649 56.9589 268.863 56.9589 269.076 57.0657C269.29 57.1725 269.61 57.2794 269.824 57.3862C270.038 57.493 270.251 57.7067 270.358 57.8135C270.465 58.0272 270.572 58.2409 270.572 58.5614C270.572 58.8818 270.465 59.0955 270.358 59.3092C270.251 59.5228 270.038 59.7365 269.717 59.8433C269.397 60.2707 269.076 60.2707 268.649 60.2707ZM273.991 60.2707V55.1428H277.409V55.8906H274.952V57.2794H277.195V58.0272H274.952V59.5228H277.409V60.2707H273.991ZM280.828 60.2707V55.1428H281.789V59.5228H284.033V60.2707H280.828ZM287.558 60.2707V55.1428H288.52V59.5228H290.763V60.2707H287.558ZM294.288 60.2707V55.1428H295.25V60.2707H294.288ZM298.882 60.2707V55.1428H299.844L302.301 58.775V55.1428H303.262V60.2707H302.301L299.844 56.6384V60.2707H298.882ZM309.138 60.2707C308.604 60.2707 308.176 60.1638 307.856 59.9502C307.535 59.7365 307.215 59.416 307.001 58.9887C306.788 58.5614 306.681 58.134 306.681 57.5999C306.681 57.0657 306.788 56.6384 307.001 56.2111C307.215 55.7837 307.535 55.4632 307.856 55.2496C308.283 55.0359 308.711 54.9291 309.245 54.9291C309.886 54.9291 310.313 55.0359 310.74 55.3564C311.168 55.6769 311.381 55.9974 311.488 56.5316H310.42C310.313 56.3179 310.206 56.1042 309.993 55.9974C309.779 55.8906 309.565 55.7837 309.245 55.7837C308.711 55.7837 308.283 55.9974 308.07 56.3179C307.749 56.6384 307.642 57.0657 307.642 57.7067C307.642 58.2409 307.749 58.6682 308.07 58.9887C308.39 59.3092 308.711 59.416 309.245 59.416C309.672 59.416 310.099 59.3092 310.313 58.9887C310.527 58.775 310.74 58.3477 310.74 58.0272H309.458V57.2794H311.702V60.1638H310.847L310.74 59.5228C310.527 59.7365 310.313 59.9502 310.099 60.057C309.886 60.2706 309.565 60.2707 309.138 60.2707Z" fill="#3B3B3B"/>
<path d="M123.445 53.4824H146.385" stroke="#6A5B40" stroke-width="2.49582" stroke-miterlimit="10" stroke-linecap="round"/>
<path d="M100.717 59.3881C101.667 60.4955 103.038 61.1811 104.514 61.1811H142.746C144.17 61.1811 145.594 60.5483 146.543 59.3881C147.492 58.2807 147.967 56.7514 147.809 55.2749L143.696 17.2538C143.643 16.6209 143.116 16.1463 142.483 16.1463H134.151V11.2421C134.151 5.17769 129.457 0.220703 123.657 0.220703C117.856 0.220703 113.11 5.12496 113.11 11.1894V16.0936H104.778C104.145 16.0936 103.618 16.5682 103.565 17.201L99.4519 55.2222C99.2937 56.7514 99.7683 58.2807 100.717 59.3881ZM115.536 11.1894C115.536 6.54877 119.174 2.75193 123.604 2.75193C128.086 2.75193 131.672 6.54877 131.672 11.1894V16.0936H115.536V11.1894ZM145.752 54.853L145.858 55.9604C145.963 56.7514 145.699 57.5424 145.172 58.1753C144.645 58.8081 143.959 59.1245 143.168 59.1245H104.04C103.249 59.1245 102.563 58.8081 102.036 58.1753C101.508 57.5424 101.298 56.8042 101.35 55.9604L105.411 18.203H112.846V26.9568C112.846 27.6951 113.426 28.2751 114.112 28.2751C114.797 28.2751 115.377 27.6951 115.377 26.9568V18.203H131.936V26.9568C131.936 27.6951 132.516 28.2751 133.202 28.2751C133.887 28.2751 134.467 27.6951 134.467 26.9568V18.203H141.903L145.594 52.2691L145.752 54.853Z" fill="#2A2A2A"/>
<path d="M133.355 47.4158C132.406 48.3651 131.14 48.8397 129.822 48.8397C128.503 48.7869 127.238 48.2596 126.341 47.2576L124.654 45.412C123.388 44.0409 123.019 42.1952 123.494 40.455L126.447 43.619L127.343 44.5155L128.187 45.412C129.136 46.4139 130.718 46.4666 131.72 45.5174C131.931 45.2538 132.142 45.0428 132.3 44.7264C132.406 44.41 132.511 44.0936 132.511 43.7772C132.511 43.4608 132.459 43.0917 132.353 42.7753C132.248 42.4589 132.037 42.1952 131.826 41.9315L130.982 40.9823L127.185 36.8691C128.873 36.4999 130.666 36.9218 131.931 38.2929L133.671 40.1386C134.568 41.1405 135.095 42.4589 135.043 43.7772C134.884 45.201 134.304 46.4666 133.355 47.4158ZM121.279 36.289L127.291 42.7753C127.765 43.3026 128.556 43.3026 129.031 42.828C129.505 42.3007 129.505 41.5096 129.084 41.035L123.072 34.5488C122.597 34.0214 121.806 34.0214 121.332 34.496C120.857 34.9706 120.857 35.8144 121.279 36.289ZM118.695 35.3398L123.388 40.3495C121.701 40.7714 119.908 40.2968 118.642 38.9257L116.902 37.08C116.006 36.0781 115.478 34.7597 115.531 33.4414C115.584 32.0703 116.111 30.8047 117.06 29.8555C118.009 28.9062 119.275 28.4316 120.593 28.4316C121.912 28.4844 123.177 29.0117 124.074 30.0137L125.761 31.8593C127.027 33.2304 127.396 35.0761 126.921 36.8163L122.228 31.8066C121.279 30.7519 119.697 30.7519 118.695 31.7011C117.799 32.7031 117.746 34.2851 118.695 35.3398Z" fill="#6A5B40"/>
<path d="M114.979 54.749H117.984C118.67 54.749 119.197 54.1689 119.197 53.4834C119.197 52.7978 118.67 52.2178 117.984 52.2178H114.979C114.293 52.2178 113.766 52.7978 113.766 53.4834C113.766 54.2217 114.346 54.749 114.979 54.749Z" fill="#6A5B40"/>
<path d="M317.011 26.3937V21.541H315.375V20.8613H319.477V21.541H317.849V26.3937H317.011Z" fill="#2A2A2A"/>
<path d="M321.288 26.3937V20.8613H322.276L324.149 24.5443L326.015 20.8613H327.002V26.3937H326.165V22.3077L324.473 25.6034H323.825L322.126 22.3156V26.3937H321.288Z" fill="#2A2A2A"/>
<line y1="94.5" x2="1440" y2="94.5" stroke="black" stroke-opacity="0.2"/>
<g clip-path="url(#clip0_287_5169)">
<g clip-path="url(#clip1_287_5169)">
<path d="M1233.06 51.131C1232.75 51.369 1232.34 51.4352 1231.96 51.3087L1222.29 48.05L1212.77 51.6273C1212.4 51.7659 1211.98 51.7137 1211.66 51.4863C1211.33 51.2587 1211.14 50.8865 1211.14 50.4912L1211.2 40.2882L1204.81 32.3054C1204.56 31.9966 1204.48 31.5854 1204.59 31.2073C1204.71 30.8299 1205 30.5329 1205.38 30.4147L1215.08 27.3672L1220.65 18.8573C1220.87 18.5266 1221.23 18.3256 1221.63 18.3186C1222.02 18.3117 1222.4 18.5014 1222.63 18.8236L1228.57 27.1434L1238.41 29.8653C1238.79 29.971 1239.09 30.2574 1239.22 30.6319C1239.35 31.006 1239.29 31.4189 1239.06 31.7367L1233.03 39.9253L1233.53 50.1205C1233.55 50.5148 1233.38 50.8929 1233.06 51.1309L1233.06 51.131ZM1213.55 48.7687L1221.83 45.6551C1222.09 45.5583 1222.37 45.5537 1222.63 45.6417L1231.05 48.4783L1230.61 39.6047C1230.6 39.3286 1230.68 39.0581 1230.84 38.8365L1236.09 31.7095L1227.54 29.3403C1227.27 29.2673 1227.04 29.1038 1226.88 28.8789L1221.7 21.6382L1216.85 29.0454C1216.7 29.2754 1216.48 29.4457 1216.21 29.5287L1207.77 32.1811L1213.33 39.1289C1213.5 39.3448 1213.6 39.613 1213.59 39.8892L1213.55 48.7687Z" fill="#6C6C6C"/>
</g>
</g>
<path fill-rule="evenodd" clip-rule="evenodd" d="M1310.49 34.2424C1314.01 31.4754 1315.38 26.7835 1313.92 22.5549C1312.46 18.3263 1308.47 15.4902 1304 15.4902C1299.52 15.4902 1295.54 18.3263 1294.08 22.5549C1292.61 26.7835 1293.99 31.4754 1297.51 34.2424C1291.52 36.6422 1287.33 42.1438 1286.62 48.5574C1286.51 49.5238 1287.21 50.3935 1288.18 50.4999C1289.14 50.6062 1290.01 49.9088 1290.12 48.9423C1290.92 41.8596 1296.91 36.5052 1304.03 36.5052C1311.16 36.5052 1317.15 41.8596 1317.95 48.9423C1318.04 49.833 1318.8 50.5053 1319.7 50.4999H1319.89C1320.84 50.39 1321.53 49.5305 1321.43 48.5748C1320.71 42.1424 1316.51 36.6298 1310.49 34.2424ZM1304 33C1300.13 33 1297 29.866 1297 26C1297 22.134 1300.13 19 1304 19C1307.87 19 1311 22.134 1311 26C1311 27.8565 1310.26 29.637 1308.95 30.9498C1307.64 32.2625 1305.86 33 1304 33Z" fill="black"/>
<path d="M1396 28.333C1396 25.6808 1394.95 23.1373 1393.07 21.2619C1391.2 19.3866 1388.65 18.333 1386 18.333C1383.35 18.333 1380.8 19.3866 1378.93 21.2619C1377.05 23.1373 1376 25.6808 1376 28.333C1376 39.9997 1371 43.333 1371 43.333H1401C1401 43.333 1396 39.9997 1396 28.333Z" stroke="black" stroke-width="2" stroke-linecap="round" stroke-linejoin="round"/>
<path d="M1388.88 50C1388.59 50.5051 1388.17 50.9244 1387.66 51.2159C1387.16 51.5073 1386.58 51.6608 1386 51.6608C1385.42 51.6608 1384.84 51.5073 1384.34 51.2159C1383.83 50.9244 1383.41 50.5051 1383.12 50" stroke="black" stroke-width="2" stroke-linecap="round" stroke-linejoin="round"/>
<ellipse cx="1392.67" cy="21.6667" rx="6.66667" ry="6.66667" fill="#DA1E28" fill-opacity="0.45"/>
<ellipse cx="5" cy="5" rx="5" ry="5" transform="matrix(-1 0 0 1 1397.66 16.667)" fill="#DA1E28"/>
<path d="M1392.72 23.9043V20.0263L1391.92 20.2153V19.5293L1393.1 19.0043H1393.65V23.9043H1392.72Z" fill="white"/>
<defs>
<clipPath id="clip0_287_5169">
<rect width="42" height="42" fill="white" transform="translate(1200 15)"/>
</clipPath>
<clipPath id="clip1_287_5169">
<rect width="42" height="42" fill="white" transform="translate(1200 15)"/>
</clipPath>
</defs>
</svg>
