
<svg width="41" height="41" viewBox="0 0 41 41" fill="none" xmlns="http://www.w3.org/2000/svg">
<path fill-rule="evenodd" clip-rule="evenodd" d="M26.4816 21.7642C29.8471 19.1164 31.1646 14.6265 29.7636 10.5799C28.3626 6.53333 24.5508 3.81934 20.2686 3.81934C15.9863 3.81934 12.1746 6.53333 10.7736 10.5799C9.37255 14.6265 10.6901 19.1164 14.0556 21.7642C8.32336 24.0608 4.3201 29.3255 3.63915 35.463C3.53742 36.3879 4.20471 37.2201 5.12961 37.3219C6.0545 37.4236 6.88675 36.7563 6.98849 35.8314C7.74984 29.0536 13.4816 23.9296 20.3021 23.9296C27.1225 23.9296 32.8543 29.0536 33.6157 35.8314C33.71 36.6837 34.4329 37.3271 35.2904 37.3219H35.4746C36.3883 37.2167 37.0463 36.3943 36.9483 35.4797C36.264 29.3242 32.2383 24.0489 26.4816 21.7642V21.7642ZM20.2683 20.5764C16.5687 20.5764 13.5696 17.5773 13.5696 13.8777C13.5696 10.1781 16.5687 7.17905 20.2683 7.17905C23.9678 7.17905 26.9669 10.1781 26.9669 13.8777C26.9669 15.6543 26.2612 17.3581 25.0049 18.6144C23.7487 19.8706 22.0449 20.5764 20.2683 20.5764Z" fill="#897552"/>
</svg>
