<svg width="21" height="21" viewBox="0 0 21 21" fill="none" xmlns="http://www.w3.org/2000/svg">
<path d="M17.0977 0.0263672H3.34766C1.62177 0.0263672 0.222656 1.42548 0.222656 3.15137V16.9014C0.222656 18.6273 1.62177 20.0264 3.34766 20.0264H17.0977C18.8235 20.0264 20.2227 18.6273 20.2227 16.9014V3.15137C20.2227 1.42548 18.8235 0.0263672 17.0977 0.0263672Z" fill="#25D366"/>
<path fill-rule="evenodd" clip-rule="evenodd" d="M13.7227 6.46387C12.7852 5.52637 11.5352 5.02637 10.2227 5.02637C7.47266 5.02637 5.22266 7.27637 5.22266 10.0264C5.22266 10.9014 5.47266 11.7764 5.91016 12.5264L5.22266 15.0264L7.84766 14.3389C8.59766 14.7139 9.41016 14.9639 10.2227 14.9639C12.9727 14.9639 15.2227 12.7139 15.2227 9.96387C15.2227 8.65137 14.6602 7.40137 13.7227 6.46387ZM10.2227 14.1514C9.47266 14.1514 8.72266 13.9639 8.09766 13.5889L7.97265 13.5264L6.41015 13.9639L6.84766 12.4639L6.72265 12.2764C6.28515 11.5889 6.09765 10.8389 6.09765 10.0889C6.09765 7.83887 7.97266 5.96387 10.2227 5.96387C11.3477 5.96387 12.3477 6.40137 13.1602 7.15137C13.9727 7.96387 14.3477 8.96387 14.3477 10.0889C14.3477 12.2764 12.5352 14.1514 10.2227 14.1514ZM12.4727 11.0264C12.3477 10.9639 11.7227 10.6514 11.5977 10.6514C11.4727 10.5889 11.4101 10.5889 11.3476 10.7139C11.2851 10.8389 11.0352 11.0889 10.9727 11.2139C10.9102 11.2764 10.8476 11.2764 10.7226 11.2764C10.5976 11.2139 10.2227 11.0889 9.72266 10.6514C9.34766 10.3389 9.09766 9.90137 9.03516 9.77637C8.97266 9.65137 9.03516 9.58887 9.09766 9.52637C9.16016 9.46387 9.22266 9.40137 9.28516 9.33887C9.34766 9.27637 9.34766 9.21387 9.41016 9.15137C9.47266 9.08887 9.41016 9.02637 9.41016 8.96387C9.41016 8.90137 9.16016 8.27637 9.03516 8.02637C8.97266 7.83887 8.84766 7.83887 8.78516 7.83887C8.72266 7.83887 8.66015 7.83887 8.53515 7.83887C8.47265 7.83887 8.34765 7.83887 8.22265 7.96387C8.09765 8.08887 7.78516 8.40137 7.78516 9.02637C7.78516 9.65137 8.22265 10.2139 8.28515 10.3389C8.34765 10.4014 9.16015 11.7139 10.4101 12.2139C11.4726 12.6514 11.6602 12.5264 11.9102 12.5264C12.1602 12.5264 12.6602 12.2139 12.7227 11.9639C12.8477 11.6514 12.8477 11.4014 12.7852 11.4014C12.7227 11.0889 12.5977 11.0889 12.4727 11.0264Z" fill="white"/>
</svg>
