<svg width="51" height="48" viewBox="0 0 51 48" fill="none" xmlns="http://www.w3.org/2000/svg">
<path d="M41.211 46.8333C40.7644 47.1712 40.1798 47.2653 39.6482 47.0856L25.9115 42.458L12.3914 47.538C11.8668 47.735 11.2785 47.6607 10.8176 47.3379C10.3574 47.0146 10.0841 46.4861 10.0857 45.9248L10.1626 31.4358L1.09002 20.0998C0.738517 19.6613 0.624066 19.0774 0.785503 18.5404C0.94679 18.0045 1.36355 17.5827 1.89829 17.4149L15.6783 13.0873L23.5899 1.0026C23.8963 0.532987 24.4142 0.247556 24.9755 0.237732C25.5368 0.227906 26.0671 0.49728 26.3934 0.954749L34.8361 12.7694L48.8002 16.6347C49.342 16.7849 49.7763 17.1915 49.9611 17.7233C50.1464 18.2546 50.0579 18.8409 49.7258 19.2922L41.1603 30.9206L41.8791 45.3984C41.9071 45.9582 41.6576 46.4952 41.211 46.8331L41.211 46.8333ZM13.499 43.4787L25.2653 39.0572C25.6311 38.9197 26.0327 38.9133 26.4042 39.0381L38.3609 43.0663L37.7347 30.4652C37.7151 30.0732 37.8309 29.6891 38.0627 29.3744L45.5167 19.2535L33.364 15.8891C32.9869 15.7855 32.656 15.5533 32.4272 15.2339L25.0797 4.95166L18.1938 15.4704C17.979 15.7971 17.6595 16.0388 17.2868 16.1567L5.2921 19.9233L13.1894 29.7896C13.4352 30.0961 13.5681 30.4771 13.5652 30.8693L13.499 43.4787Z" fill="#BFB8AD"/>
</svg>
